<?xml version="1.0" standalone="no"?>
<!DOCTYPE svg PUBLIC "-//W3C//DTD SVG 20010904//EN"
 "http://www.w3.org/TR/2001/REC-SVG-20010904/DTD/svg10.dtd">
<svg version="1.0" xmlns="http://www.w3.org/2000/svg"
 width="512.000000pt" height="512.000000pt" viewBox="0 0 512.000000 512.000000"
 preserveAspectRatio="xMidYMid meet">
<metadata>
Created by potrace 1.11, written by Peter Selinger 2001-2013
</metadata>
<g transform="translate(0.000000,512.000000) scale(0.100000,-0.100000)"
fill="#000000" stroke="none">
<path d="M1063 5096 l-28 -24 0 -486 c0 -425 -2 -486 -15 -487 -8 -1 -228 -2
-488 -3 l-474 -1 -24 -28 -24 -28 0 -1307 c0 -1224 2 -1308 18 -1329 9 -13 31
-27 47 -31 17 -4 186 -8 377 -7 l347 0 36 -100 c20 -55 40 -109 46 -120 5 -11
98 -256 208 -545 109 -289 205 -537 212 -553 8 -18 25 -31 48 -38 33 -10 49
-6 201 54 270 106 529 208 815 322 149 59 342 135 430 170 88 35 282 111 430
170 149 59 343 136 433 171 1138 449 1426 565 1443 580 40 36 28 80 -140 505
l-159 404 138 5 c117 4 141 8 159 24 l21 19 0 1323 0 1323 -26 20 -27 21
-1988 0 -1988 0 -28 -24z m3896 -1341 l0 -1195 -113 0 -113 0 -26 68 c-14 37
-29 75 -33 85 -5 14 0 17 24 17 18 0 43 10 59 24 l28 24 0 976 0 975 -23 23
-23 23 -1643 3 c-1080 1 -1653 -1 -1671 -8 -47 -18 -50 -44 -50 -369 0 -192
-4 -302 -10 -304 -9 -3 -108 -2 -145 2 -13 1 -15 54 -15 426 l-1 425 1878 0
1877 0 0 -1195z m-343 3 c-1 -472 -5 -853 -10 -853 -7 0 -80 180 -338 840 -94
242 -94 242 -133 257 -19 6 -32 15 -29 19 2 5 -9 23 -25 41 l-29 33 -1244 0
c-684 0 -1248 3 -1253 7 -7 4 -10 95 -9 250 1 133 2 246 3 251 1 4 691 7 1535
7 l1533 0 -1 -852z m-779 160 c-7 -3 -104 -41 -217 -84 l-205 -77 -1495 -1
c-822 -1 -1505 -6 -1518 -10 -54 -18 -52 13 -52 -1016 0 -1047 -3 -1001 60
-1017 17 -5 81 -8 144 -7 l114 1 30 -80 c17 -45 29 -83 27 -86 -2 -3 -124 -6
-272 -6 l-268 0 -3 1195 -2 1195 1834 0 c1009 0 1829 -3 1823 -7z m593 -1053
c199 -506 393 -999 431 -1096 38 -96 69 -178 69 -181 0 -4 -24 -15 -52 -26
-29 -11 -242 -95 -473 -187 -411 -162 -522 -206 -1320 -521 -214 -85 -417
-165 -450 -179 -33 -13 -215 -85 -405 -160 -190 -74 -354 -140 -365 -145 -65
-29 -437 -171 -440 -168 -4 4 -170 439 -404 1058 -61 162 -116 304 -121 315
-42 92 -349 930 -343 935 4 4 217 85 473 180 256 95 510 189 565 210 55 21
228 86 385 144 157 58 492 182 745 277 253 94 579 215 725 269 146 55 342 128
435 162 143 54 171 61 177 48 3 -8 169 -429 368 -935z m-1508 714 c-4 -4 -59
-26 -122 -49 -63 -23 -344 -127 -625 -232 -280 -104 -568 -212 -640 -238 -71
-27 -138 -51 -147 -55 -15 -6 -17 0 -16 52 2 112 -32 194 -111 265 -73 66
-132 87 -233 85 -66 -2 -94 -7 -140 -29 -136 -64 -214 -214 -187 -362 12 -67
54 -149 93 -184 14 -12 26 -26 26 -30 0 -8 -274 -113 -292 -112 -6 0 -9 879
-3 890 2 3 543 5 1204 5 660 0 1197 -3 1193 -6z m-1787 -374 c131 -100 54
-311 -110 -300 -132 8 -199 139 -133 256 46 81 166 103 243 44z m-560 -1255
c24 -66 21 -81 -14 -75 -9 2 -21 4 -28 4 -8 1 -12 31 -11 104 1 115 2 114 53
-33z"/>
<path d="M3925 3582 c-11 -2 -391 -148 -845 -324 -454 -177 -922 -358 -1040
-404 -963 -373 -1217 -475 -1237 -494 -13 -13 -23 -34 -23 -51 0 -15 84 -248
186 -516 102 -268 221 -582 265 -698 44 -116 84 -219 89 -230 5 -11 41 -105
80 -210 74 -198 90 -225 141 -225 23 0 403 139 494 180 11 6 317 125 680 265
363 141 701 272 750 292 50 19 333 130 630 245 297 115 549 215 560 221 56 29
57 63 5 201 -22 58 -40 111 -40 118 0 6 -11 34 -24 62 -13 28 -86 213 -161
411 -478 1258 -427 1131 -464 1149 -14 7 -35 11 -46 8z m74 -492 c49 -129 148
-389 220 -578 72 -189 131 -346 131 -348 0 -5 -173 84 -245 126 -16 9 -75 41
-130 70 -55 29 -179 96 -275 148 -245 133 -266 142 -300 130 -55 -19 -62 -37
-63 -152 0 -73 -3 -103 -11 -99 -6 4 -152 101 -325 216 -254 169 -320 209
-348 209 -64 0 -78 -26 -99 -192 -19 -149 -24 -189 -29 -220 -4 -28 -33 -242
-41 -305 -2 -22 -7 -51 -9 -65 -2 -14 -7 -47 -10 -75 -4 -27 -8 -59 -9 -70 -2
-11 -11 -80 -21 -152 -12 -92 -21 -130 -29 -126 -6 4 -127 97 -269 206 -142
109 -273 207 -291 217 -34 21 -60 20 -95 -2 -32 -20 -37 -43 -46 -228 -3 -69
-8 -145 -10 -170 -2 -25 -7 -97 -10 -160 -4 -63 -9 -137 -10 -165 -2 -27 -7
-99 -10 -160 -4 -60 -8 -130 -10 -155 -4 -54 -17 -271 -19 -320 -1 -27 -6 -36
-23 -38 -12 -2 -23 4 -27 15 -12 31 -444 1165 -531 1393 -69 182 -79 216 -66
221 54 22 1259 490 1366 531 72 27 139 54 150 59 11 4 74 29 140 55 66 25 199
76 295 114 228 89 575 224 670 260 41 16 120 47 175 69 l100 39 12 -32 c7 -17
53 -137 102 -266z m-919 -746 c168 -112 316 -205 330 -208 30 -4 59 9 82 38
14 17 18 42 18 129 0 59 3 107 6 107 6 0 556 -295 806 -432 l126 -69 26 -65
c31 -76 32 -90 9 -99 -10 -3 -227 -88 -483 -187 -540 -210 -904 -352 -975
-379 -27 -10 -52 -15 -55 -11 -4 7 -152 122 -239 187 -14 10 -56 43 -92 72
l-67 52 8 43 c4 24 11 70 15 103 7 69 9 80 30 230 8 61 17 130 20 155 4 40 12
96 20 140 1 8 6 42 9 75 8 66 9 69 31 233 8 62 15 115 15 118 0 8 -15 17 360
-232z m-726 -914 c240 -184 432 -338 428 -342 -4 -3 -170 -70 -368 -147 -199
-77 -414 -160 -478 -185 -64 -26 -119 -46 -122 -46 -3 0 -3 39 0 88 4 48 8
125 11 172 3 47 7 117 10 155 2 39 7 113 10 165 3 52 8 122 10 155 2 33 7 112
11 175 6 106 10 159 13 169 2 6 17 -6 475 -359z"/>
</g>
</svg>
